<svg width="480" height="270" viewBox="0 0 480 270" fill="none" xmlns="http://www.w3.org/2000/svg">
<rect width="480" height="270" fill="#0F4C81"/>
<path d="M205.56 130.84C196.92 130.84 190.04 129.24 184.92 126.04C179.88 122.84 176.24 118.12 174 111.88C171.84 105.56 170.76 97.72 170.76 88.36C170.76 79 171.84 71.08 174 64.6C176.24 58.04 179.88 53.08 184.92 49.72C190.04 46.36 196.92 44.68 205.56 44.68C208.68 44.68 211.72 44.96 214.68 45.52C217.72 46.08 220.2 47.08 222.12 48.52C224.12 49.96 225.12 52.04 225.12 54.76C225.12 56.76 224.4 58.44 222.96 59.8C221.52 61.16 219.2 61.84 216 61.84C214.24 61.84 212.28 61.64 210.12 61.24C207.96 60.76 205.44 60.52 202.56 60.52C196.96 60.52 193.24 62.8 191.4 67.36C189.64 71.84 188.76 78.84 188.76 88.36C188.76 97.88 189.92 104.72 192.24 108.88C194.56 112.96 198 115 202.56 115C212.16 115 216.96 110.96 216.96 102.88C216.96 99.2 217.52 96.68 218.64 95.32L210.24 95.44C207.76 95.52 205.84 95.04 204.48 94C203.2 92.96 202.56 91.16 202.56 88.6C202.56 86.04 203.2 84.24 204.48 83.2C205.84 82.16 207.76 81.64 210.24 81.64H222.96C225.76 81.64 227.84 82 229.2 82.72C230.56 83.36 231.44 84.76 231.84 86.92C232.32 89 232.56 92.16 232.56 96.4C232.56 103.84 231.8 110.12 230.28 115.24C228.76 120.36 226.04 124.24 222.12 126.88C218.28 129.52 212.76 130.84 205.56 130.84ZM260.948 88.36C260.948 97.88 262.108 104.72 264.428 108.88C266.748 112.96 270.188 115 274.748 115C277.628 115 280.148 114.8 282.308 114.4C284.468 113.92 286.428 113.68 288.188 113.68C291.388 113.68 293.708 114.36 295.148 115.72C296.588 117 297.308 118.68 297.308 120.76C297.308 123.48 296.308 125.56 294.308 127C292.388 128.44 289.908 129.44 286.868 130C283.908 130.56 280.868 130.84 277.748 130.84C269.108 130.84 262.228 129.24 257.108 126.04C252.068 122.84 248.428 118.12 246.188 111.88C244.028 105.56 242.948 97.72 242.948 88.36C242.948 79 244.028 71.08 246.188 64.6C248.428 58.04 252.068 53.08 257.108 49.72C262.228 46.36 269.108 44.68 277.748 44.68C280.868 44.68 283.908 44.96 286.868 45.52C289.908 46.08 292.388 47.08 294.308 48.52C296.308 49.96 297.308 52.04 297.308 54.76C297.308 56.76 296.588 58.44 295.148 59.8C293.708 61.16 291.388 61.84 288.188 61.84C286.428 61.84 284.468 61.64 282.308 61.24C280.148 60.76 277.628 60.52 274.748 60.52C269.148 60.52 265.428 62.8 263.588 67.36C261.828 71.84 260.948 78.84 260.948 88.36Z" fill="#F4F7FA"/>
<path d="M104.96 211C103.947 211 103.093 210.6 102.4 209.8C101.707 209 101.36 207.987 101.36 206.76V170.76C101.36 169 101.6 167.16 102.08 165.24C102.613 163.32 103.573 161.533 104.96 159.88C106.4 158.173 108.427 156.787 111.04 155.72C113.653 154.653 117.067 154.12 121.28 154.12C126.88 154.12 131.227 155.507 134.32 158.28C137.413 161.053 138.96 165.213 138.96 170.76C138.96 173 138.533 175.053 137.68 176.92C136.88 178.787 135.653 180.2 134 181.16C136.613 182.333 138.48 183.96 139.6 186.04C140.773 188.12 141.36 191 141.36 194.68C141.36 200.013 139.707 204.067 136.4 206.84C133.147 209.613 128.107 211 121.28 211H104.96ZM112.32 179.72C113.013 178.867 114.133 178.2 115.68 177.72C117.28 177.24 119.147 177 121.28 177C123.787 177 125.493 176.547 126.4 175.64C127.36 174.68 127.84 173.053 127.84 170.76C127.84 168.093 127.28 166.2 126.16 165.08C125.093 163.907 123.467 163.32 121.28 163.32C118.187 163.32 116 163.88 114.72 165C113.493 166.12 112.88 168.04 112.88 170.76C112.88 172.413 112.853 173.747 112.8 174.76C112.8 175.72 112.747 176.573 112.64 177.32C112.587 178.067 112.48 178.867 112.32 179.72ZM112.88 201.72H121.28C124.48 201.72 126.693 201.16 127.92 200.04C129.2 198.92 129.84 197.133 129.84 194.68C129.84 191.213 129.173 188.733 127.84 187.24C126.56 185.747 124.373 185 121.28 185C119.093 185 117.387 185.293 116.16 185.88C114.933 186.413 114.08 187.373 113.6 188.76C113.12 190.147 112.88 192.12 112.88 194.68V201.72ZM161.079 206.28C161.079 209.853 159.213 211.64 155.479 211.64C153.666 211.64 152.226 211.187 151.159 210.28C150.093 209.373 149.559 208.04 149.559 206.28V156.28C149.559 154.36 149.986 152.84 150.839 151.72C151.746 150.6 153.239 150.04 155.319 150.04C157.399 150.04 158.866 150.6 159.719 151.72C160.626 152.84 161.079 154.36 161.079 156.28V206.28ZM187.358 211.64C181.651 211.64 177.145 210.013 173.838 206.76C170.531 203.507 168.878 198.253 168.878 191C168.878 183.693 170.531 178.44 173.838 175.24C177.145 171.987 181.651 170.36 187.358 170.36C193.065 170.36 197.571 171.987 200.878 175.24C204.185 178.44 205.838 183.693 205.838 191C205.838 198.253 204.185 203.507 200.878 206.76C197.571 210.013 193.065 211.64 187.358 211.64ZM187.358 202.04C188.851 202.04 190.105 201.747 191.118 201.16C192.131 200.52 192.905 199.4 193.438 197.8C194.025 196.2 194.318 193.933 194.318 191C194.318 188.067 194.025 185.8 193.438 184.2C192.905 182.6 192.131 181.507 191.118 180.92C190.105 180.28 188.851 179.96 187.358 179.96C185.918 179.96 184.665 180.28 183.598 180.92C182.585 181.507 181.785 182.6 181.198 184.2C180.665 185.8 180.398 188.067 180.398 191C180.398 193.933 180.665 196.2 181.198 197.8C181.785 199.4 182.585 200.52 183.598 201.16C184.665 201.747 185.918 202.04 187.358 202.04ZM248.411 215.88C248.411 220.413 246.277 223.8 242.011 226.04C237.744 228.28 231.637 229.4 223.691 229.4C219.584 229.4 216.571 228.867 214.651 227.8C212.784 226.787 211.851 225.187 211.851 223C211.851 221.453 212.277 220.413 213.131 219.88C213.984 219.4 215.131 219.16 216.571 219.16C217.637 219.16 218.544 219.213 219.291 219.32C220.037 219.48 220.837 219.613 221.691 219.72C222.597 219.88 223.717 219.96 225.051 219.96C229.264 219.96 232.277 219.64 234.091 219C235.957 218.36 236.891 217.053 236.891 215.08C236.891 213.427 236.224 212.093 234.891 211.08C233.557 210.067 231.877 209.56 229.851 209.56C217.584 209.56 211.451 203.027 211.451 189.96C211.451 183.293 212.997 178.36 216.091 175.16C219.184 171.96 223.797 170.36 229.931 170.36C233.984 170.36 237.344 171.053 240.011 172.44C241.291 167.64 244.011 165.24 248.171 165.24C250.197 165.24 251.744 165.773 252.811 166.84C253.931 167.853 254.491 169.347 254.491 171.32C254.491 173.133 253.957 174.44 252.891 175.24C251.824 176.04 250.117 176.44 247.771 176.44C246.757 176.44 245.824 176.52 244.971 176.68C247.264 179.88 248.411 184.333 248.411 190.04C248.411 193.613 247.877 196.573 246.811 198.92C245.797 201.267 243.904 203.213 241.131 204.76C243.797 205.72 245.664 207.213 246.731 209.24C247.851 211.213 248.411 213.427 248.411 215.88ZM222.971 189.96C222.971 196.627 225.291 199.96 229.931 199.96C234.571 199.96 236.891 196.627 236.891 189.96C236.891 186.493 236.304 183.96 235.131 182.36C234.011 180.76 232.277 179.96 229.931 179.96C227.637 179.96 225.904 180.76 224.731 182.36C223.557 183.96 222.971 186.493 222.971 189.96ZM293.254 215.88C293.254 220.413 291.121 223.8 286.854 226.04C282.588 228.28 276.481 229.4 268.534 229.4C264.428 229.4 261.414 228.867 259.494 227.8C257.628 226.787 256.694 225.187 256.694 223C256.694 221.453 257.121 220.413 257.974 219.88C258.828 219.4 259.974 219.16 261.414 219.16C262.481 219.16 263.388 219.213 264.134 219.32C264.881 219.48 265.681 219.613 266.534 219.72C267.441 219.88 268.561 219.96 269.894 219.96C274.108 219.96 277.121 219.64 278.934 219C280.801 218.36 281.734 217.053 281.734 215.08C281.734 213.427 281.068 212.093 279.734 211.08C278.401 210.067 276.721 209.56 274.694 209.56C262.428 209.56 256.294 203.027 256.294 189.96C256.294 183.293 257.841 178.36 260.934 175.16C264.028 171.96 268.641 170.36 274.774 170.36C278.828 170.36 282.188 171.053 284.854 172.44C286.134 167.64 288.854 165.24 293.014 165.24C295.041 165.24 296.588 165.773 297.654 166.84C298.774 167.853 299.334 169.347 299.334 171.32C299.334 173.133 298.801 174.44 297.734 175.24C296.668 176.04 294.961 176.44 292.614 176.44C291.601 176.44 290.668 176.52 289.814 176.68C292.108 179.88 293.254 184.333 293.254 190.04C293.254 193.613 292.721 196.573 291.654 198.92C290.641 201.267 288.748 203.213 285.974 204.76C288.641 205.72 290.508 207.213 291.574 209.24C292.694 211.213 293.254 213.427 293.254 215.88ZM267.814 189.96C267.814 196.627 270.134 199.96 274.774 199.96C279.414 199.96 281.734 196.627 281.734 189.96C281.734 186.493 281.148 183.96 279.974 182.36C278.854 180.76 277.121 179.96 274.774 179.96C272.481 179.96 270.748 180.76 269.574 182.36C268.401 183.96 267.814 186.493 267.814 189.96ZM321.944 211.64C316.61 211.64 312.424 210.76 309.384 209C306.397 207.24 304.264 204.813 302.984 201.72C301.757 198.627 301.144 195.08 301.144 191.08C301.144 183.72 302.77 178.44 306.024 175.24C309.277 171.987 313.65 170.36 319.144 170.36C322.45 170.36 325.384 170.92 327.944 172.04C330.504 173.16 332.504 174.76 333.944 176.84C335.384 178.867 336.104 181.347 336.104 184.28C336.104 192.813 330.024 197.08 317.864 197.08H313.224C313.65 198.733 314.344 200.04 315.304 201C316.317 201.907 318.077 202.36 320.584 202.36C321.97 202.36 323.09 202.28 323.944 202.12C324.797 201.96 325.597 201.8 326.344 201.64C327.144 201.48 328.05 201.4 329.064 201.4C330.504 201.4 331.65 201.667 332.504 202.2C333.357 202.68 333.784 203.693 333.784 205.24C333.784 207.427 332.824 209.053 330.904 210.12C329.037 211.133 326.05 211.64 321.944 211.64ZM312.664 191.16C313.09 190.573 313.57 190.2 314.104 190.04C314.637 189.827 315.464 189.72 316.584 189.72C319.73 189.72 321.89 189.427 323.064 188.84C324.29 188.2 324.904 187.08 324.904 185.48C324.904 183.453 324.344 181.907 323.224 180.84C322.104 179.72 320.69 179.16 318.984 179.16C317.01 179.16 315.464 179.987 314.344 181.64C313.224 183.293 312.664 186.467 312.664 191.16ZM349.14 211.64C345.3 211.64 343.38 209.827 343.38 206.2V175.88C343.38 172.2 345.3 170.36 349.14 170.36C351.06 170.36 352.447 170.787 353.3 171.64C354.153 172.44 354.58 173.773 354.58 175.64C355.54 173.88 356.9 172.573 358.66 171.72C360.473 170.813 362.58 170.36 364.98 170.36C369.567 170.36 371.86 172.36 371.86 176.36C371.86 177.853 371.3 178.973 370.18 179.72C369.06 180.467 367.22 180.84 364.66 180.84C362.153 180.84 360.18 181.08 358.74 181.56C357.3 181.987 356.287 182.813 355.7 184.04C355.167 185.213 354.9 186.92 354.9 189.16V206.2C354.9 209.827 352.98 211.64 349.14 211.64Z" fill="#F4F7FA"/>
</svg>
